# Blender v3.2.0 OBJ File: ''
# www.blender.org
mtllib Campfire.mtl
o Campfire_Cylinder.014
v -0.028063 0.175448 0.000029
v 0.086211 0.230749 0.075348
v -0.061341 0.222327 0.129407
v 0.205048 0.363256 0.162654
v 0.191223 0.433500 -0.007012
v -0.157888 0.212308 0.000000
v -0.068240 0.212307 -0.123389
v 0.096307 0.229486 -0.070879
v 0.308282 0.748011 0.068206
v -0.094830 0.326444 0.211224
v 0.053173 0.326087 0.210183
v -0.016528 0.508234 0.270687
v -0.251939 0.322871 -0.000392
v -0.199910 0.307103 0.123389
v -0.285317 0.488155 0.072826
v -0.110402 0.344500 -0.212843
v -0.199131 0.293766 -0.123628
v -0.189298 0.448805 -0.202986
v 0.192255 0.424766 -0.125356
v 0.040676 0.295737 -0.198321
v 0.113038 0.536107 -0.195650
v 0.176604 0.492564 0.268715
v -0.174908 0.452884 0.207054
v -0.276741 0.442162 -0.079001
v -0.044649 0.453184 -0.250201
v 0.233521 0.561459 -0.058708
v 0.044666 0.655021 0.228798
v 0.138319 0.744398 0.132528
v 0.014306 0.712866 0.140383
v -0.223165 0.667101 0.127991
v -0.111912 0.852197 0.200649
v -0.160281 0.866966 0.074732
v -0.314556 0.755080 -0.151983
v -0.242417 0.660884 -0.000341
v -0.148678 0.781347 -0.077670
v -0.000702 0.790967 -0.210809
v -0.106507 0.625009 -0.202428
v -0.024044 0.757308 -0.119783
v 0.154121 0.701178 0.025241
v 0.113701 0.758417 -0.110048
v 0.067160 0.849255 0.011646
v -0.031959 1.219738 0.000000
v 0.412335 0.026309 -0.195215
v -0.017523 0.346820 0.067979
v -0.093250 0.281988 0.023251
v 0.336608 -0.038524 -0.239943
v 0.308865 0.003790 -0.336784
v -0.120994 0.324302 -0.073590
v -0.062414 0.415285 -0.088713
v 0.367445 0.094774 -0.351907
v 0.431393 0.108691 -0.264412
v 0.001534 0.429203 -0.001219
v 0.462578 0.094774 0.055669
v -0.030768 0.415285 -0.047575
v -0.044230 0.429203 0.059959
v 0.449116 0.108691 0.163202
v 0.363351 -0.038524 0.116008
v -0.129995 0.281988 0.012765
v -0.083773 0.324302 -0.076742
v 0.409572 0.003790 0.026501
v -0.105556 0.346820 0.097250
v 0.387790 0.026309 0.200494
v -0.376742 0.026309 0.220528
v 0.097049 0.346820 0.048566
v 0.162307 0.281988 0.107527
v -0.311484 -0.038524 0.279490
v 0.170135 0.324302 0.207960
v -0.303657 0.003790 0.379922
v 0.109714 0.415285 0.211068
v -0.364078 0.094774 0.383031
v 0.064545 0.429203 0.112557
v -0.409247 0.108691 0.284520
v 0.189531 0.179138 0.612069
v -0.047480 0.174487 0.063816
v -0.094459 0.078129 0.084942
v 0.142552 0.082780 0.633195
v 0.302397 0.051702 0.564358
v 0.065386 0.047051 0.016105
v 0.051310 0.155280 0.021272
v 0.288321 0.159931 0.569525
v 0.212306 0.004020 0.603709
v -0.024704 -0.000631 0.055455
v 0.072297 0.083159 -0.606892
v 0.124872 0.091157 -0.011956
v 0.051907 0.010177 -0.004419
v -0.000667 0.002178 -0.599355
v -0.100021 0.046903 -0.591177
v -0.047447 0.054901 0.003760
v -0.035886 0.163522 0.001278
v -0.088461 0.155524 -0.593658
v 0.070612 0.185929 -0.008435
v 0.018038 0.177931 -0.603371
v -0.245407 0.026309 -0.361047
v 0.139141 0.346820 -0.035205
v 0.120371 0.281988 0.050718
v -0.264176 -0.038524 -0.275123
v -0.347462 0.003790 -0.218454
v 0.037086 0.324302 0.107387
v 0.004382 0.415285 0.056487
v -0.380166 0.094774 -0.269354
v 0.067456 0.429203 -0.031640
v -0.317092 0.108691 -0.357481
v -0.591593 0.083736 -0.045880
v -0.000095 0.085915 -0.128958
v 0.010021 0.002490 -0.059128
v -0.581478 0.000311 0.023950
v -0.567559 0.041636 0.124134
v 0.023940 0.043816 0.041057
v 0.022427 0.152781 0.033143
v -0.569072 0.150602 0.116221
v -0.583926 0.176621 0.011146
v 0.007573 0.178800 -0.071932
vt 0.808211 0.040192
vt 0.822011 0.046869
vt 0.804193 0.045852
vt 0.838516 0.166111
vt 0.826009 0.152165
vt 0.837061 0.173504
vt 0.792534 0.044643
vt 0.803360 0.044643
vt 0.823230 0.046717
vt 0.820095 0.530506
vt 0.819263 0.534734
vt 0.826310 0.553667
vt 0.800149 0.058425
vt 0.818021 0.058382
vt 0.809604 0.080378
vt 0.790421 0.161861
vt 0.795896 0.160201
vt 0.786908 0.179256
vt 0.798268 0.060606
vt 0.787554 0.054479
vt 0.788741 0.073201
vt 0.837170 0.172585
vt 0.821217 0.159005
vt 0.828833 0.184303
vt 0.818383 0.538290
vt 0.790479 0.073694
vt 0.787810 0.174415
vt 0.806208 0.073730
vt 0.841513 0.186971
vt 0.810441 0.548070
vt 0.816078 0.553450
vt 0.808613 0.551552
vt 0.794318 0.548797
vt 0.801015 0.559939
vt 0.798103 0.560828
vt 0.788816 0.554093
vt 0.793159 0.548422
vt 0.798802 0.555674
vt 0.807710 0.556253
vt 0.801340 0.546263
vt 0.806304 0.554227
vt 0.817030 0.550848
vt 0.814597 0.554294
vt 0.811795 0.559762
vt 0.805828 0.582065
vt 0.821810 0.542437
vt 0.814557 0.540911
vt 0.812237 0.175575
vt 0.805727 0.193659
vt 0.816862 0.211125
vt 0.797013 0.175115
vt 0.783830 0.207348
vt 0.791092 0.535256
vt 0.791423 0.197435
vt 0.790576 0.538024
vt 0.798528 0.175544
vt 0.805158 0.217569
vt 0.793449 0.198089
vt 0.815196 0.181369
vt 0.821637 0.196818
vt 0.835522 0.179720
vt 0.831493 0.206224
vt 0.825250 0.083743
vt 0.816512 0.054717
vt 0.795978 0.158798
vt 0.787460 0.056090
vt 0.822532 0.162199
vt 0.834816 0.070298
vt 0.781177 0.057994
vt 0.827072 0.152033
vt 0.836361 0.062871
vt 0.700279 0.449018
vt 0.683887 0.425456
vt 0.678915 0.426055
vt 0.695306 0.449617
vt 0.691644 0.454032
vt 0.675252 0.430470
vt 0.677961 0.432599
vt 0.694352 0.456161
vt 0.706526 0.939923
vt 0.703181 0.941899
vt 0.701955 0.946177
vt 0.704543 0.946845
vt 0.707368 0.942980
vt 0.683298 0.429501
vt 0.699689 0.453062
vt 0.057025 0.060342
vt 0.059573 0.069593
vt 0.051024 0.081290
vt 0.708640 0.062085
vt 0.680552 0.056178
vt 0.682311 0.050263
vt 0.710399 0.056170
vt 0.704847 0.056668
vt 0.676759 0.050761
vt 0.677121 0.056486
vt 0.705209 0.062393
vt 0.045256 0.056429
vt 0.053455 0.061414
vt 0.055254 0.075790
vt 0.679967 0.046915
vt 0.708055 0.052822
vt 0.705442 0.922442
vt 0.704362 0.926175
vt 0.706404 0.930129
vt 0.708745 0.928840
vt 0.668647 0.409281
vt 0.689417 0.429090
vt 0.694170 0.427509
vt 0.673399 0.407700
vt 0.696876 0.422451
vt 0.676106 0.402642
vt 0.693797 0.420907
vt 0.673027 0.401097
vt 0.082112 0.041629
vt 0.067996 0.054383
vt 0.074035 0.041213
vt 0.689187 0.425010
vt 0.668417 0.405200
vt 0.671668 0.921557
vt 0.674551 0.918953
vt 0.674897 0.914516
vt 0.672228 0.914379
vt 0.707136 0.151823
vt 0.682230 0.174988
vt 0.680264 0.172811
vt 0.705169 0.149647
vt 0.711929 0.156894
vt 0.687023 0.180058
vt 0.686408 0.179467
vt 0.711313 0.156303
vt 0.708132 0.152781
vt 0.683226 0.175945
vt 0.046740 0.058074
vt 0.053020 0.060899
vt 0.066227 0.066586
vt 0.694608 0.903328
vt 0.697690 0.904630
vt 0.701670 0.906369
vt 0.701048 0.906140
vt 0.673127 0.212702
vt 0.689483 0.182883
vt 0.685851 0.180820
vt 0.669494 0.210640
vt 0.664501 0.207939
vt 0.680857 0.178120
vt 0.681403 0.178514
vt 0.665047 0.208333
vt 0.691505 0.958109
vt 0.688282 0.957776
vt 0.683893 0.957415
vt 0.684403 0.957524
vt 0.686734 0.181458
vt 0.670378 0.211277
vt 0.076061 0.071028
vt 0.068807 0.070558
vt 0.054570 0.069259
vt 0.662186 0.067612
vt 0.689695 0.059422
vt 0.690683 0.054512
vt 0.663174 0.062702
vt 0.653404 0.075006
vt 0.704812 0.031446
vt 0.700440 0.038250
vt 0.649032 0.081810
vt 0.664538 0.082582
vt 0.715946 0.039022
vt 0.677470 0.947249
vt 0.676641 0.943453
vt 0.672962 0.940950
vt 0.671517 0.943198
vt 0.657258 0.059747
vt 0.684767 0.051557
vt 0.686039 0.057595
vt 0.658530 0.065786
vt 0.075459 0.062650
vt 0.077969 0.074136
vt 0.068385 0.073660
vt 0.059953 0.061879
vt 0.064325 0.055074
vt 0.651347 0.168256
vt 0.680289 0.186124
vt 0.682415 0.182714
vt 0.653473 0.164846
vt 0.656491 0.159940
vt 0.685433 0.177809
vt 0.685173 0.178187
vt 0.656231 0.160318
vt 0.662516 0.930807
vt 0.663239 0.925816
vt 0.663172 0.926165
vt 0.681994 0.183326
vt 0.653052 0.165457
vt 0.059355 0.086670
vt 0.060380 0.079046
vt 0.062366 0.064999
vt 0.689108 0.957953
vt 0.674304 0.947091
vt 0.081066 0.055055
vt 0.072341 0.062938
vt 0.046901 0.066322
vt 0.043192 0.079268
vt 0.041989 0.067724
vt 0.048168 0.079689
vt 0.670233 0.918731
vt 0.696684 0.904261
vt 0.708151 0.924090
vt 0.662177 0.933326
vt 0.662624 0.930241
vt 0.056065 0.062016
vt 0.068109 0.067277
vt 0.060707 0.077334
vt 0.062568 0.063941
vt 0.066307 0.070021
vt 0.053025 0.068927
vn 0.1900 -0.9064 0.3773
vn 0.7993 -0.5295 -0.2843
vn -0.2632 -0.9267 0.2681
vn -0.2679 -0.9436 -0.1946
vn 0.2045 -0.9177 -0.3406
vn 0.9329 -0.2994 -0.2000
vn 0.0059 -0.3132 0.9497
vn -0.8858 -0.3254 0.3309
vn -0.5570 -0.3501 -0.7531
vn 0.5297 -0.1502 -0.8348
vn 0.9001 -0.1403 0.4124
vn -0.3159 -0.1693 0.9336
vn -0.9797 -0.2002 0.0053
vn -0.3034 -0.1404 -0.9425
vn 0.7373 0.1030 -0.6677
vn -0.1662 0.7981 0.5792
vn -0.8531 0.3672 0.3708
vn -0.3837 0.6915 0.6121
vn -0.8435 0.5369 -0.0178
vn 0.8627 0.5037 -0.0447
vn 0.8586 0.5111 -0.0403
vn 0.8632 0.5028 -0.0452
vn 0.7451 0.1792 -0.6424
vn 0.0351 0.8073 -0.5891
vn -0.0316 0.9401 0.3395
vn -0.2696 0.2371 -0.9333
vn -0.1537 0.5907 -0.7921
vn 0.2255 0.6441 -0.7309
vn -0.9287 0.2885 -0.2328
vn -0.8364 0.4483 -0.3155
vn -0.9365 0.3279 0.1246
vn -0.1371 0.2528 0.9578
vn 0.6883 0.7022 -0.1820
vn 0.7640 0.6279 0.1485
vn 0.7907 0.2294 0.5676
vn -0.1359 0.7074 0.6936
vn 0.8629 0.4999 -0.0743
vn 0.8582 0.5117 -0.0399
vn 0.7024 0.2540 -0.6650
vn 0.6788 0.2621 -0.6860
vn -0.3096 0.1497 -0.9390
vn -0.3103 0.1494 -0.9388
vn -0.3093 0.1498 -0.9391
vn -0.3109 0.1491 -0.9387
vn -0.1820 0.0886 -0.9793
vn -0.9055 -0.0105 0.4242
vn -0.9744 0.1938 -0.1138
vn -0.9484 0.2899 0.1282
vn -0.6730 0.1179 0.7302
vn -0.3947 0.0770 0.9156
vn 0.1139 0.2285 0.9669
vn 0.3567 0.4858 0.7980
vn 0.2997 0.4887 0.8194
vn -0.1666 0.9058 -0.3895
vn 0.2914 0.0733 -0.9538
vn 0.3727 -0.1019 -0.9223
vn -0.0118 -0.3187 -0.9478
vn -0.7868 -0.2403 -0.5685
vn -0.7870 -0.2401 -0.5683
vn -0.7898 -0.2282 -0.5693
vn -0.7870 -0.2408 -0.5680
vn -0.8812 -0.3739 -0.2893
vn -0.7620 0.0661 0.6442
vn -0.7817 -0.2042 0.5893
vn -0.5674 -0.3345 0.7524
vn 0.0311 0.2623 0.9645
vn -0.0164 -0.3208 0.9470
vn 0.3689 -0.5396 0.7568
vn 0.0687 0.5422 -0.8374
vn 0.9401 -0.3354 -0.0609
vn 0.9526 -0.3025 0.0306
vn 0.6790 -0.4869 -0.5495
vn 0.2539 -0.8084 -0.5311
vn -0.1100 -0.5809 -0.8065
vn -0.3713 -0.5987 -0.7097
vn -0.4929 -0.7930 -0.3581
vn -0.7502 -0.6388 -0.1706
vn -0.7414 -0.6299 0.2314
vn -0.4864 -0.7650 0.4221
vn -0.4197 -0.6404 0.6432
vn 0.9011 -0.4317 0.0397
vn 0.8967 -0.4377 0.0657
vn 0.4157 -0.9088 0.0365
vn 0.0040 -0.6171 0.7869
vn 0.2627 -0.7563 0.5991
vn 0.3619 -0.7171 0.5957
vn 0.0418 -0.6000 0.7989
vn -0.4412 0.1366 -0.8870
vn -0.6462 -0.7497 -0.1425
vn 0.7197 -0.5366 -0.4406
vn 0.3736 0.8342 -0.4057
vn 0.6721 0.3789 0.6362
vn -0.7197 0.5366 0.4406
vn 0.5501 0.8342 -0.0391
vn -0.3726 -0.7497 -0.5469
vn 0.2872 0.1366 -0.9481
vn -0.8259 0.5366 -0.1729
vn -0.8259 0.5366 -0.1728
vn 0.0528 0.3789 0.9239
vn -0.5175 -0.6000 0.6101
vn 0.8259 -0.5366 0.1728
vn 0.1187 -0.6000 -0.7911
vn 0.6047 -0.7497 0.2687
vn 0.2550 0.1366 0.9572
vn 0.7932 0.5366 -0.2879
vn -0.4471 0.8342 0.3229
vn -0.5313 0.3789 -0.7577
vn -0.7932 -0.5366 0.2879
vn -0.8110 0.4714 0.3466
vn 0.9088 0.1370 -0.3940
vn 0.4034 -0.8997 -0.1667
vn -0.3968 -0.0078 -0.9179
vn -0.6595 -0.6931 0.2910
vn 0.1583 0.9844 -0.0768
vn 0.3968 0.0078 0.9179
vn 0.7391 -0.6712 -0.0563
vn -0.9905 0.1074 0.0861
vn -0.4067 -0.9123 0.0482
vn -0.0880 -0.0134 -0.9960
vn -0.2055 0.9787 0.0050
vn 0.8635 0.4975 -0.0830
vn 0.0880 0.0134 0.9960
vn 0.7457 -0.6000 -0.2898
vn -0.7042 0.1366 0.6967
vn 0.0670 -0.7497 0.6583
vn -0.6438 -0.5366 -0.5455
vn -0.5023 0.8342 -0.2278
vn 0.3938 0.3789 -0.8375
vn 0.6438 0.5366 0.5455
vn -0.1039 -0.6458 -0.7564
vn 0.1384 0.0736 0.9876
vn 0.0560 -0.9257 0.3741
vn -0.9903 -0.0036 0.1391
vn -0.9903 -0.0037 0.1391
vn 0.0296 0.9712 0.2363
vn -0.1201 0.5266 -0.8416
vn 0.9903 0.0036 -0.1391
vn 0.9903 0.0037 -0.1391
usemtl Material.001
s 1
f 1/1/1 2/2/1 3/3/1
f 4/4/2 2/5/2 5/6/2
f 1/1/3 3/3/3 6/7/3
f 1/1/4 6/7/4 7/8/4
f 1/1/5 7/8/5 8/9/5
f 4/10/6 5/11/6 9/12/6
f 10/13/7 11/14/7 12/15/7
f 13/16/8 14/17/8 15/18/8
f 16/19/9 17/20/9 18/21/9
f 19/22/10 20/23/10 21/24/10
f 4/10/11 9/12/11 22/25/11
f 10/13/12 12/15/12 23/26/12
f 13/16/13 15/18/13 24/27/13
f 16/19/14 18/21/14 25/28/14
f 19/22/15 21/24/15 26/29/15
f 27/30/16 28/31/16 29/32/16
f 30/33/17 31/34/17 32/35/17
f 33/36/18 34/37/18 35/38/18
f 36/39/19 37/40/19 38/41/19
f 39/42/20 40/43/21 41/44/22
f 41/44/23 38/41/23 42/45/23
f 41/44/24 40/43/24 38/41/24
f 40/43/25 36/39/25 38/41/25
f 38/41/26 35/38/26 42/45/26
f 38/41/27 37/40/27 35/38/27
f 37/40/28 33/36/28 35/38/28
f 35/38/29 32/35/29 42/45/29
f 35/38/30 34/37/30 32/35/30
f 34/37/31 30/33/31 32/35/31
f 32/35/32 29/32/32 42/45/32
f 32/35/33 31/34/33 29/32/33
f 31/34/34 27/30/34 29/32/34
f 29/32/35 41/44/35 42/45/35
f 29/32/36 28/31/36 41/44/36
f 28/31/37 39/42/37 41/44/37
f 26/46/38 40/43/21 39/42/20
f 26/46/39 21/47/39 40/43/39
f 21/47/40 36/39/40 40/43/40
f 25/48/41 37/49/42 36/50/43
f 25/48/41 18/51/44 37/49/42
f 18/51/45 33/52/45 37/49/45
f 24/53/46 34/37/46 33/36/46
f 24/27/47 15/18/47 34/54/47
f 15/55/48 30/33/48 34/37/48
f 23/56/49 31/57/49 30/58/49
f 23/56/50 12/59/50 31/57/50
f 12/59/51 27/60/51 31/57/51
f 22/61/52 28/62/52 27/60/52
f 22/25/53 9/12/53 28/31/53
f 9/12/54 39/42/54 28/31/54
f 21/24/55 25/48/55 36/50/55
f 21/63/56 20/64/56 25/28/56
f 20/64/57 16/19/57 25/28/57
f 18/51/58 24/27/59 33/52/60
f 18/51/58 17/65/61 24/27/59
f 17/65/62 13/16/62 24/27/62
f 15/18/63 23/56/63 30/58/63
f 15/18/64 14/17/64 23/56/64
f 14/66/65 10/13/65 23/26/65
f 12/59/66 22/61/66 27/60/66
f 12/59/67 11/67/67 22/61/67
f 11/67/68 4/4/68 22/61/68
f 9/12/69 26/46/69 39/42/69
f 9/12/70 5/11/70 26/46/70
f 5/6/71 19/22/71 26/29/71
f 8/9/72 20/64/72 19/68/72
f 8/9/73 7/8/73 20/64/73
f 7/8/74 16/19/74 20/64/74
f 7/8/75 17/20/75 16/19/75
f 7/8/76 6/7/76 17/20/76
f 6/7/77 13/69/77 17/20/77
f 6/7/78 14/66/78 13/69/78
f 6/7/79 3/3/79 14/66/79
f 3/3/80 10/13/80 14/66/80
f 5/6/81 8/70/81 19/22/81
f 5/6/82 2/5/82 8/70/82
f 2/2/83 1/1/83 8/9/83
f 3/3/84 11/14/84 10/13/84
f 3/3/85 2/2/85 11/14/85
f 2/2/86 4/71/86 11/14/86
f 43/72/87 44/73/87 45/74/87 46/75/87
f 47/76/88 48/77/88 49/78/88 50/79/88
f 46/75/89 45/74/89 48/77/89 47/76/89
f 43/80/90 46/81/90 47/82/90 50/83/90 51/84/90
f 50/79/91 49/78/91 52/85/91 51/86/91
f 51/86/92 52/85/92 44/73/92 43/72/92
f 44/87/93 52/88/93 49/89/93
f 53/90/94 54/91/94 55/92/94 56/93/94
f 57/94/95 58/95/95 59/96/95 60/97/95
f 60/97/96 59/96/96 54/91/96 53/90/96
f 61/98/97 55/99/98 54/100/97
f 56/93/99 55/92/99 61/101/99 62/102/99
f 62/102/100 61/101/100 58/95/100 57/94/100
f 62/103/101 57/104/101 60/105/101 53/106/101
f 63/107/102 64/108/102 65/109/102 66/110/102
f 66/110/103 65/109/103 67/111/103 68/112/103
f 68/112/104 67/111/104 69/113/104 70/114/104
f 67/115/105 71/116/105 69/117/105
f 70/114/106 69/113/106 71/118/106 72/119/106
f 72/119/107 71/118/107 64/108/107 63/107/107
f 63/120/108 66/121/108 68/122/108 70/123/108
f 73/124/109 74/125/109 75/126/109 76/127/109
f 77/128/110 78/129/110 79/130/110 80/131/110
f 81/132/111 82/133/111 78/129/111 77/128/111
f 75/134/112 74/135/112 79/136/112
f 76/127/113 75/126/113 82/133/113 81/132/113
f 80/131/114 79/130/114 74/125/114 73/124/114
f 76/137/115 81/138/115 77/139/115 80/140/115
f 83/141/116 84/142/116 85/143/116 86/144/116
f 87/145/117 88/146/117 89/147/117 90/148/117
f 86/144/118 85/143/118 88/146/118 87/145/118
f 83/149/119 86/150/119 87/151/119 90/152/119
f 90/148/120 89/147/120 91/153/120 92/154/120
f 92/154/121 91/153/121 84/142/121 83/141/121
f 84/155/122 91/156/122 89/157/122
f 93/158/123 94/159/123 95/160/123 96/161/123
f 97/162/124 98/163/124 99/164/124 100/165/124
f 96/166/125 95/167/125 98/163/125 97/162/125
f 93/168/126 96/169/126 97/170/126 100/171/126
f 100/172/127 99/173/127 101/174/127 102/175/127
f 102/175/128 101/174/128 94/159/128 93/158/128
f 95/176/129 94/177/129 101/178/129 99/179/129 98/180/129
f 103/181/130 104/182/130 105/183/130 106/184/130
f 107/185/131 108/186/131 109/187/131 110/188/131
f 106/184/132 105/183/132 108/186/132 107/185/132
f 111/189/133 107/190/133 110/191/134
f 110/188/135 109/187/135 112/192/135 111/193/135
f 111/193/136 112/192/136 104/182/136 103/181/136
f 104/194/137 112/195/137 109/196/137
f 92/197/119 83/149/119 90/152/119
f 102/198/126 93/168/126 100/171/126
f 65/199/105 64/200/105 71/116/105 67/115/105
f 45/201/93 44/87/93 49/89/93 48/202/93
f 58/203/97 61/98/97 54/100/97 59/204/97
f 72/205/108 63/120/108 70/123/108
f 73/206/115 76/137/115 80/140/115
f 56/207/101 62/103/101 53/106/101
f 103/208/133 106/209/133 107/190/133 111/189/133
f 82/210/112 75/134/112 79/136/112 78/211/112
f 105/212/138 104/194/137 109/196/137 108/213/138
f 85/214/122 84/155/122 89/157/122 88/215/122
